<?xml version="1.0" standalone="no"?>
<!DOCTYPE svg PUBLIC "-//W3C//DTD SVG 20010904//EN"
 "http://www.w3.org/TR/2001/REC-SVG-20010904/DTD/svg10.dtd">
<svg version="1.0" xmlns="http://www.w3.org/2000/svg"
 width="512.000000pt" height="512.000000pt" viewBox="0 0 512.000000 512.000000"
 preserveAspectRatio="xMidYMid meet">

<g transform="translate(0.000000,512.000000) scale(0.100000,-0.100000)"
fill="#000000" stroke="none">
<path d="M0 3970 c0 -632 2 -1150 5 -1150 3 0 33 14 67 31 34 17 80 37 102 44
45 14 100 34 131 46 11 4 55 10 98 12 62 3 80 8 92 23 13 18 14 18 40 -6 20
-19 25 -31 21 -52 -3 -14 -1 -40 4 -57 7 -26 5 -33 -10 -41 -10 -5 -21 -23
-25 -39 -7 -32 -26 -41 -65 -31 -50 13 -170 -37 -208 -85 -11 -14 -30 -25 -42
-25 -19 0 -22 4 -17 27 3 15 0 37 -5 49 -9 19 -16 22 -42 17 -17 -3 -42 -12
-55 -20 -19 -12 -22 -20 -17 -46 4 -17 16 -42 28 -55 20 -20 29 -22 70 -17 26
4 62 2 80 -3 18 -6 54 -13 81 -17 26 -3 47 -9 47 -13 0 -4 -20 -15 -45 -25
-50 -21 -56 -39 -23 -68 l23 -18 -30 9 c-70 20 -114 25 -185 18 -41 -4 -85 -8
-97 -9 -23 -1 -23 -2 -23 -166 0 -152 1 -164 18 -159 9 3 31 8 47 11 60 13
146 51 178 77 18 16 39 28 47 28 8 0 39 23 69 50 29 28 59 50 66 50 6 0 20 9
30 20 16 18 16 20 1 26 -34 13 -14 20 44 16 40 -3 60 -1 60 7 0 6 7 11 15 11
8 0 15 -6 15 -14 0 -10 18 -18 53 -25 50 -9 237 -22 237 -15 0 20 -23 54 -38
54 -10 0 -28 11 -39 24 l-21 24 25 7 c14 3 40 17 58 31 17 13 38 24 46 24 18
-1 59 -35 59 -49 0 -7 7 -14 15 -17 8 -4 15 -11 15 -18 0 -6 9 -17 20 -24 12
-7 20 -23 20 -38 0 -22 4 -25 32 -22 24 2 33 -1 36 -15 2 -10 -3 -17 -13 -17
-8 0 -18 -7 -21 -15 -4 -8 -11 -15 -16 -15 -16 0 -37 -32 -38 -57 0 -13 -4
-23 -10 -23 -5 0 -10 -4 -10 -10 0 -5 9 -10 20 -10 11 0 20 -7 20 -15 0 -11
-12 -15 -48 -15 -39 0 -53 5 -70 25 -12 14 -27 25 -33 25 -6 0 -9 9 -6 20 4
14 0 20 -11 21 -10 0 -30 2 -45 4 -26 3 -28 1 -23 -18 5 -23 -5 -26 -61 -19
-19 3 -16 27 7 47 21 19 26 50 12 72 -10 16 -149 20 -165 4 -6 -6 -7 -11 -3
-11 5 0 3 -6 -3 -14 -14 -16 -4 -46 15 -46 16 0 19 -16 4 -25 -6 -3 -10 -11
-10 -17 0 -6 3 -8 7 -5 3 4 12 2 20 -4 11 -10 10 -14 -4 -25 -17 -13 -17 -15
0 -28 9 -7 17 -20 17 -29 0 -9 4 -18 9 -21 13 -8 6 -87 -9 -96 -9 -6 -7 -11 9
-19 12 -7 19 -16 17 -20 -6 -10 31 -45 57 -54 9 -4 17 -13 17 -22 0 -8 6 -15
13 -16 6 0 -3 -5 -20 -10 -40 -11 -42 -22 -8 -37 33 -15 54 -15 88 1 26 12 37
37 17 37 -5 0 -10 7 -10 15 0 8 4 15 8 15 16 0 117 -54 128 -69 10 -13 16 -13
38 -3 15 7 35 12 46 12 10 0 43 14 73 30 30 17 62 30 71 30 10 0 19 11 23 30
3 17 10 30 15 30 5 0 21 13 37 29 20 20 42 30 77 35 27 4 57 9 67 12 12 4 17
0 17 -14 0 -19 6 -20 103 -17 57 1 114 8 126 15 l23 12 -30 28 -30 27 -165 -2
c-91 -1 -171 1 -178 6 -16 10 5 11 218 13 78 0 145 4 149 8 4 5 -4 8 -17 8
-37 1 -3 16 52 24 48 7 83 0 73 -15 -3 -5 34 -9 84 -9 80 0 90 2 95 19 3 11 2
22 -1 25 -3 3 -109 7 -236 7 -155 1 -211 4 -171 9 33 4 140 8 237 9 135 1 180
4 190 15 8 7 25 17 38 21 21 7 22 8 6 17 -10 6 -31 8 -47 6 -24 -4 -27 -2 -16
10 6 8 16 29 22 46 7 21 18 32 33 34 26 4 27 10 5 34 -9 10 -14 20 -12 23 4 4
63 12 97 14 22 1 8 25 -19 33 -14 4 -4 5 24 2 27 -3 47 -1 47 4 0 11 -24 22
-50 22 -9 0 -23 6 -29 14 -10 11 -8 15 6 19 16 4 15 6 -4 12 -13 4 -23 14 -23
21 0 11 9 13 40 8 47 -8 83 2 60 16 -13 8 -13 11 1 26 14 13 20 14 38 2 18
-11 23 -11 31 2 5 8 10 18 10 23 0 10 -18 9 -25 -3 -9 -15 -25 -12 -25 4 0 8
-17 20 -37 27 -21 6 -49 18 -63 25 -29 16 -144 54 -162 54 -13 0 -66 23 -172
76 -37 19 -75 34 -85 34 -9 0 -25 7 -35 15 -25 19 -40 19 -32 0 10 -26 -22
-17 -50 14 -16 19 -32 27 -44 24 -10 -3 -29 2 -42 11 -12 9 -32 16 -45 16 -39
0 -77 42 -79 88 -2 42 9 52 63 52 16 0 21 4 17 15 -5 12 3 15 38 15 24 0 49 5
55 11 8 8 25 8 63 -1 28 -7 62 -10 75 -8 18 4 26 0 30 -13 5 -14 15 -18 36
-16 29 2 31 -1 51 -58 18 -53 62 -129 101 -175 31 -37 114 -84 167 -95 l35 -6
-36 23 c-56 35 -112 91 -131 129 -18 38 -31 99 -21 99 10 0 53 -51 53 -62 0
-6 9 -21 20 -35 11 -14 20 -36 20 -49 0 -13 5 -24 11 -24 7 0 17 -6 23 -14 6
-8 32 -25 57 -39 36 -20 50 -23 59 -14 10 9 12 8 7 -5 -12 -35 16 -41 140 -30
83 7 120 7 124 0 4 -6 14 -8 24 -5 12 5 15 3 11 -11 -7 -21 8 -47 22 -38 13 8
22 -17 15 -44 -5 -19 -3 -21 16 -15 27 8 52 -11 44 -33 -5 -14 -4 -15 8 -6 8
6 25 14 39 18 25 6 71 82 70 118 0 9 5 20 11 24 6 3 8 17 5 29 -4 14 -1 25 7
28 7 3 5 6 -5 6 -9 1 -25 15 -35 31 -9 17 -21 30 -24 30 -4 0 -9 37 -12 83 -5
106 -26 207 -44 207 -7 0 -13 9 -13 20 0 11 -4 20 -10 20 -5 0 -10 15 -10 34
0 19 -4 38 -10 41 -5 3 -10 19 -10 36 0 16 -4 29 -10 29 -5 0 -10 -7 -10 -15
0 -8 -5 -15 -11 -15 -5 0 -7 4 -4 10 3 5 -6 21 -21 35 -28 26 -44 32 -44 15 0
-5 -9 -10 -20 -10 -14 0 -20 7 -20 21 0 25 -25 52 -43 46 -6 -2 -40 11 -75 29
-35 18 -70 30 -79 27 -9 -4 -26 5 -42 21 -14 15 -35 34 -46 42 -19 15 -19 15
5 11 14 -2 32 -6 40 -8 21 -6 24 35 4 65 -9 14 -22 26 -29 26 -7 0 -24 11 -39
25 -15 14 -34 25 -42 25 -8 0 -20 -11 -26 -25 -12 -28 -28 -31 -58 -13 -35 22
-32 0 7 -50 29 -38 54 -57 106 -81 40 -18 67 -37 67 -46 0 -20 -19 -19 -41 1
-16 15 -20 15 -34 1 -8 -9 -15 -23 -15 -31 0 -9 -4 -16 -10 -16 -5 0 -10 -7
-10 -15 0 -8 -6 -15 -14 -15 -8 0 -27 -12 -43 -27 -47 -45 -72 -63 -88 -63 -9
0 -14 -8 -12 -21 2 -16 -12 -28 -63 -54 -36 -19 -75 -45 -87 -59 -29 -34 -39
-33 -62 5 -18 29 -72 57 -146 76 -11 2 -31 10 -44 16 -18 9 -25 9 -28 1 -2 -7
-13 -10 -23 -7 -13 4 -20 0 -20 -10 0 -8 -12 -17 -27 -20 -28 -6 -123 -85
-123 -103 0 -14 -77 -47 -110 -47 -16 0 -28 -5 -27 -11 1 -6 -13 -11 -33 -11
-28 0 -36 4 -38 22 -2 12 4 35 12 52 15 28 15 31 -6 45 -21 15 -24 14 -44 -8
-12 -13 -24 -34 -26 -47 -2 -19 -9 -23 -38 -24 -34 0 -35 -1 -34 -40 1 -33 5
-41 22 -43 12 -2 22 1 22 7 0 6 9 11 21 11 15 0 20 -6 19 -22 -4 -40 -1 -47
23 -50 18 -2 22 -9 21 -35 -1 -18 2 -33 7 -33 5 0 9 -5 9 -11 0 -12 -58 -3
-77 13 -10 8 -7 14 10 28 l22 18 -27 11 c-16 6 -28 17 -28 25 0 12 -5 12 -31
3 -42 -16 -80 -52 -73 -70 9 -25 -16 -30 -57 -12 -21 10 -39 21 -39 26 0 21
37 69 54 69 19 0 19 1 -2 21 -26 24 -21 39 14 39 17 0 24 5 24 20 0 11 7 20
15 20 23 0 18 27 -7 35 -20 6 -18 8 16 15 21 4 43 15 48 24 5 9 16 16 23 16 9
0 15 9 15 21 0 19 4 20 33 15 68 -14 124 3 111 33 -3 9 -8 22 -11 29 -4 10 0
10 21 1 31 -14 48 -3 23 15 -25 19 -21 36 8 36 17 0 29 9 40 30 9 17 20 30 25
30 19 0 10 28 -19 59 -24 26 -27 33 -16 48 8 11 10 24 5 34 -6 10 -4 26 5 42
17 33 23 101 10 106 -12 4 -46 -155 -38 -176 5 -13 -2 -15 -36 -11 l-42 4 7
-42 c3 -24 2 -44 -4 -48 -20 -12 -57 125 -66 244 -10 123 -25 170 -53 170 -13
0 -31 -9 -40 -20 -10 -11 -25 -20 -34 -20 -57 0 -66 -38 -14 -63 32 -15 35
-21 35 -59 0 -52 20 -169 31 -183 4 -6 11 -26 14 -44 3 -18 13 -47 21 -63 17
-33 12 -78 -10 -78 -7 0 -19 -11 -26 -25 -7 -13 -26 -29 -43 -34 -25 -9 -38
-7 -89 19 -67 34 -83 37 -92 13 -8 -20 1 -123 16 -181 10 -39 9 -44 -11 -58
-12 -9 -19 -20 -16 -25 10 -15 -15 -10 -32 6 -8 9 -28 19 -44 22 -16 3 -29 9
-29 14 0 5 -7 9 -16 9 -36 0 -43 23 -24 77 25 70 79 171 96 177 18 7 18 46 1
71 -38 56 -24 170 29 237 19 24 34 49 34 56 0 6 3 12 8 12 4 0 13 15 21 33 21
47 77 113 119 137 47 28 131 60 158 60 12 0 44 9 72 21 68 28 82 63 82 206 0
59 5 134 11 167 31 176 30 171 101 309 29 57 34 83 16 89 -8 3 -14 63 -19 194
-4 104 -8 195 -8 202 -1 9 -128 12 -601 12 l-600 0 0 -1150z m2090 -745 c0 -8
-4 -15 -10 -15 -5 0 -10 7 -10 15 0 8 5 15 10 15 6 0 10 -7 10 -15z m-100 -40
c0 -8 -4 -15 -10 -15 -5 0 -10 7 -10 15 0 8 5 15 10 15 6 0 10 -7 10 -15z
m102 -27 c-15 -15 -26 -4 -18 18 5 13 9 15 18 6 9 -9 9 -15 0 -24z m-92 -23
c0 -8 -4 -15 -10 -15 -5 0 -10 7 -10 15 0 8 5 15 10 15 6 0 10 -7 10 -15z
m-1087 -62 c-7 -2 -19 -2 -25 0 -7 3 -2 5 12 5 14 0 19 -2 13 -5z m66 -57 c7
-8 8 -17 3 -20 -15 -9 -52 5 -52 20 0 18 34 18 49 0z m1421 -105 c0 -6 -4 -13
-10 -16 -5 -3 -10 -13 -10 -21 0 -26 -48 -92 -78 -107 -38 -19 -68 -4 -37 18
39 28 95 90 95 106 0 9 3 19 7 22 10 10 33 8 33 -2z m-1475 -61 c3 -5 1 -10
-4 -10 -6 0 -11 5 -11 10 0 6 2 10 4 10 3 0 8 -4 11 -10z m320 -30 c9 -14 -33
-56 -45 -44 -15 15 0 54 21 54 10 0 21 -4 24 -10z m-54 -217 c8 -22 13 -24 52
-18 30 5 55 2 81 -9 32 -13 37 -20 34 -43 -3 -24 2 -28 32 -37 44 -12 42 -10
34 -30 -4 -12 -19 -16 -55 -16 -27 0 -49 -5 -49 -10 0 -6 -10 -8 -24 -4 -21 5
-23 3 -19 -20 4 -19 1 -26 -11 -26 -9 0 -16 5 -16 10 0 6 -11 10 -25 10 -16 0
-25 6 -25 15 0 8 -4 15 -10 15 -5 0 -10 6 -10 13 0 7 -6 25 -12 40 -10 19 -22
27 -47 29 -53 5 -52 28 1 29 24 0 37 3 31 6 -7 2 -13 14 -13 25 0 19 -4 20
-56 15 -31 -3 -62 -11 -67 -16 -15 -15 -37 -14 -37 3 0 9 18 16 50 20 28 4 50
11 50 16 0 11 27 16 68 11 24 -2 36 -10 43 -28z m839 28 c0 -15 -16 -22 -34
-15 -25 9 -19 24 9 24 14 0 25 -4 25 -9z m-365 -11 c7 -12 -2 -12 -30 0 -19 8
-19 9 2 9 12 1 25 -3 28 -9z m145 -28 c0 -4 -16 -6 -35 -4 -19 2 -35 6 -35 8
0 2 16 4 35 4 19 0 35 -4 35 -8z m113 -19 c-7 -2 -21 -2 -30 0 -10 3 -4 5 12
5 17 0 24 -2 18 -5z m-38 -103 c3 -6 -1 -7 -9 -4 -18 7 -21 14 -7 14 6 0 13
-4 16 -10z m-161 -27 c17 -5 18 -6 3 -15 -22 -12 -22 -25 1 -31 9 -3 2 -5 -16
-6 -23 -1 -41 7 -58 24 -14 14 -33 25 -42 26 -11 1 -8 4 8 9 24 8 61 5 104 -7z
m-183 -15 c3 -5 12 -8 19 -6 7 2 15 -3 17 -9 3 -7 -2 -13 -11 -13 -9 0 -16 -6
-16 -13 0 -12 -25 -14 -130 -7 -3 0 -6 12 -5 27 0 20 6 29 25 34 30 7 93 -1
101 -13z m-734 -20 c-3 -7 -5 -2 -5 12 0 14 2 19 5 13 2 -7 2 -19 0 -25z m373
25 c0 -16 -16 -28 -37 -31 -25 -4 -26 -2 -17 22 6 16 54 23 54 9z m620 -29 c0
-2 -9 -4 -20 -4 -11 0 -20 4 -20 9 0 5 9 7 20 4 11 -3 20 -7 20 -9z m-690
-104 c0 -5 -7 -10 -15 -10 -8 0 -15 5 -15 10 0 6 7 10 15 10 8 0 15 -4 15 -10z
m-336 -85 c4 -12 -2 -15 -27 -14 -23 1 -26 3 -9 6 12 2 22 9 22 14 0 14 7 11
14 -6z m214 -45 c24 0 50 -6 57 -14 12 -11 7 -14 -32 -20 -25 -3 -52 -11 -59
-17 -10 -9 -14 -9 -14 0 0 6 -15 11 -32 12 -18 0 -27 3 -20 6 19 7 14 21 -10
29 -21 7 -20 9 12 14 19 3 39 3 45 -2 5 -4 29 -8 53 -8z m-245 -22 c-17 -8
-29 -8 -45 0 -20 9 -18 11 22 11 40 0 42 -2 23 -11z m27 -38 c18 -12 2 -12
-25 0 -13 6 -15 9 -5 9 8 0 22 -4 30 -9z m430 -130 c0 -5 -9 -10 -20 -10 -11
0 -20 5 -20 10 0 6 9 10 20 10 11 0 20 -4 20 -10z"/>
<path d="M1678 5093 c11 -16 32 -39 47 -53 30 -28 55 -71 55 -95 0 -17 35 -93
99 -210 66 -121 68 -125 97 -195 17 -39 59 -104 106 -161 43 -53 78 -100 78
-105 0 -6 13 -17 29 -27 48 -28 112 2 198 94 35 38 55 51 85 56 22 3 42 12 45
19 2 6 16 15 31 19 15 4 29 10 32 14 6 9 99 71 106 71 24 0 74 35 74 52 0 27
-68 105 -158 180 -42 34 -88 75 -103 89 -15 14 -59 49 -98 78 -38 29 -83 68
-100 87 -17 18 -35 34 -40 34 -6 0 -14 6 -18 13 -17 27 -93 67 -128 67 -28 0
-35 -4 -35 -20 0 -11 -4 -20 -9 -20 -5 0 -11 -9 -14 -20 -7 -26 -37 -26 -37
-1 0 11 5 23 10 26 6 3 10 13 10 21 0 12 -31 14 -191 14 l-190 0 19 -27z"/>
<path d="M3760 5018 c0 -57 -5 -136 -10 -176 -13 -101 -4 -115 73 -110 89 7
90 7 101 224 3 56 9 115 12 133 l7 31 -92 0 -91 0 0 -102z"/>
<path d="M4320 5083 c-3 -23 -2 -39 3 -34 5 5 7 24 5 42 -3 33 -4 33 -8 -8z"/>
<path d="M4394 5037 c1 -43 0 -73 -2 -67 -6 16 -72 12 -72 -4 0 -9 7 -12 20
-9 15 4 20 0 20 -16 0 -16 -6 -21 -24 -21 -22 0 -26 -6 -30 -42 -4 -24 -5 -63
-4 -88 l3 -45 60 -7 c33 -3 94 -18 135 -33 41 -15 98 -27 127 -29 37 -1 59 -8
75 -23 13 -11 37 -23 53 -26 17 -3 67 -19 113 -36 91 -34 124 -38 140 -18 6 7
33 24 61 37 l51 25 0 243 0 242 -215 0 -215 0 0 -40 c0 -22 -9 -54 -20 -72
-11 -18 -20 -44 -20 -57 0 -14 -10 -35 -22 -48 -18 -20 -19 -23 -5 -23 10 0
17 -8 17 -20 0 -13 -7 -20 -20 -20 -13 0 -20 -7 -20 -20 0 -13 -7 -20 -20 -20
-11 0 -20 5 -20 10 0 6 -9 10 -20 10 -15 0 -20 7 -20 24 0 14 -4 28 -10 31 -5
3 -10 15 -10 26 0 10 -4 19 -10 19 -5 0 -10 9 -10 20 0 13 -7 20 -20 20 -13 0
-20 7 -20 20 0 13 -7 20 -20 20 -16 0 -20 8 -23 58 -3 40 -4 34 -3 -21z"/>
<path d="M1408 4760 c-34 -10 -148 -118 -148 -142 0 -10 -4 -18 -9 -18 -5 0
-11 -8 -15 -17 -3 -10 -10 -25 -15 -33 -17 -29 -35 -75 -36 -100 -2 -14 -8
-50 -14 -82 -7 -31 -11 -76 -10 -100 1 -23 -4 -56 -10 -71 -8 -21 -8 -34 0
-49 7 -12 7 -23 2 -27 -5 -3 -8 -25 -5 -48 4 -38 6 -41 22 -33 10 6 38 10 63
10 38 0 46 4 58 28 8 15 18 30 23 33 11 8 -83 4 -112 -5 -12 -4 -22 -5 -22 -2
0 11 52 56 65 56 8 0 15 7 15 15 0 9 12 18 30 22 28 5 43 23 19 23 -6 0 -8 9
-4 22 7 21 6 21 -59 15 -73 -7 -83 7 -12 17 65 10 95 37 91 82 -2 31 4 41 39
75 22 21 50 42 62 45 12 3 28 23 39 47 16 36 34 57 91 106 6 5 29 11 50 13 33
2 39 0 45 -22 l7 -25 1 25 c1 31 -44 100 -65 100 -8 0 -28 10 -44 21 -20 15
-36 20 -54 15 -15 -4 -34 -3 -44 2 -9 5 -29 6 -44 2z m-168 -540 c-6 -11 -20
-20 -31 -20 -17 0 -18 3 -9 20 6 11 20 20 31 20 17 0 18 -3 9 -20z"/>
<path d="M2965 4633 c-23 -6 -83 -31 -105 -44 -8 -5 -28 -15 -45 -22 -40 -19
-121 -97 -130 -127 -8 -26 16 -53 41 -43 7 2 36 -3 64 -12 32 -11 64 -15 85
-11 20 4 51 0 81 -10 40 -13 54 -14 85 -4 59 20 76 45 82 126 3 38 2 75 -1 81
-4 6 -25 13 -47 15 -33 2 -40 7 -38 23 3 31 -21 40 -72 28z"/>
<path d="M1691 4584 c0 -12 7 -28 17 -35 15 -12 16 -12 6 1 -7 8 -14 24 -17
35 -4 19 -5 19 -6 -1z"/>
<path d="M3548 4450 c-46 -24 -53 -36 -35 -54 8 -8 20 -28 27 -45 7 -18 17
-28 24 -24 6 3 3 -3 -6 -14 -10 -11 -18 -23 -18 -28 0 -15 -84 -85 -110 -92
-27 -7 -51 -33 -43 -46 3 -4 11 -3 19 4 10 8 18 8 27 1 13 -11 47 7 47 26 0
13 24 22 62 22 l30 0 -33 -39 c-19 -22 -41 -50 -51 -63 -14 -20 -19 -21 -37
-10 -11 6 -29 12 -40 12 -10 0 -25 10 -33 22 -14 21 -17 22 -42 9 -14 -8 -26
-20 -26 -28 0 -7 -6 -13 -12 -13 -7 0 -26 -7 -42 -15 -33 -18 -56 -13 -56 10
0 21 -9 19 -31 -7 -24 -30 -24 -35 5 -69 20 -24 24 -36 19 -67 -6 -39 -33 -89
-33 -62 -1 27 -30 -22 -30 -50 0 -36 -33 -124 -48 -127 -7 -2 -12 1 -12 6 0 5
-11 12 -25 15 -18 5 -25 13 -25 32 0 13 -7 27 -15 30 -10 4 -12 11 -7 18 13
16 21 56 12 56 -5 0 -11 -6 -13 -12 -3 -7 -6 -1 -6 13 -1 23 2 26 24 21 14 -2
25 -8 25 -13 0 -5 5 -9 10 -9 6 0 10 12 10 26 0 14 7 32 15 40 20 21 19 54 -2
71 -14 10 -14 13 -3 11 11 -2 16 8 17 42 1 25 0 39 -3 32 -5 -10 -10 -9 -25 4
-11 10 -19 12 -19 6 0 -7 -10 -12 -23 -12 -13 0 -28 -5 -35 -12 -9 -9 -13 -7
-18 6 -5 12 -10 14 -19 6 -17 -14 -65 4 -65 25 0 19 -10 19 -38 -1 -24 -17
-42 -11 -42 12 0 22 -23 12 -35 -14 -5 -12 -13 -22 -16 -22 -7 0 -22 28 -23
45 -2 19 -76 -5 -76 -25 0 -5 16 -25 35 -45 20 -19 38 -48 41 -65 6 -28 34
-44 34 -19 0 8 4 9 13 0 8 -6 17 -8 20 -4 4 3 7 -3 7 -15 0 -16 4 -20 18 -15
9 4 20 11 24 17 4 5 10 -2 13 -16 5 -18 1 -37 -12 -58 l-18 -32 -12 39 c-6 22
-12 29 -12 18 -1 -17 -3 -17 -11 -5 -11 17 -12 13 -12 -42 -1 -16 -5 -28 -9
-28 -5 0 -9 11 -9 25 0 29 -17 33 -36 8 -12 -17 -13 -17 -20 2 -23 64 -35 85
-48 86 -33 3 -37 4 -46 19 -5 8 -10 38 -10 65 -1 41 -5 53 -25 68 -19 14 -29
15 -45 7 -17 -9 -22 -7 -27 7 -10 28 -26 33 -45 16 -17 -15 -18 -15 -18 6 0
14 -5 21 -12 18 -9 -3 -12 -26 -11 -78 2 -68 5 -76 30 -96 15 -13 34 -23 41
-23 6 0 13 -7 13 -15 1 -8 3 -19 4 -25 1 -5 3 -14 4 -19 2 -13 47 -19 65 -9
29 16 80 -25 90 -74 5 -24 44 -76 50 -66 1 2 8 14 14 28 11 22 12 20 9 -27 -2
-28 0 -58 5 -66 4 -9 9 -57 9 -108 1 -90 1 -93 18 -71 9 13 20 20 24 16 13
-13 7 -46 -13 -72 -62 -81 -59 -78 -70 -62 -8 13 -12 12 -26 -8 -12 -18 -19
-21 -30 -11 -11 9 -14 8 -14 -3 0 -8 -8 -23 -19 -34 -33 -36 -45 -65 -30 -75
8 -4 18 -4 22 0 10 10 50 2 45 -8 -27 -53 -71 -98 -54 -56 9 25 -5 45 -33 44
l-26 0 24 -10 c19 -7 22 -15 19 -39 -4 -24 -1 -30 13 -30 10 0 24 -3 32 -6 10
-3 17 4 21 22 l7 27 20 -32 c14 -24 17 -37 9 -51 -11 -20 -14 -60 -5 -60 3 0
24 18 46 40 22 22 47 40 55 40 10 0 14 12 14 40 0 33 -3 40 -20 40 -27 0 -25
15 5 37 19 14 26 29 28 64 3 38 11 53 38 78 l34 32 -35 -3 c-32 -3 -35 -1 -32
22 2 14 4 45 6 70 4 65 11 75 67 90 46 13 77 34 72 49 -2 3 0 14 3 24 8 25 24
11 24 -21 1 -25 2 -25 14 -10 12 17 14 17 31 -2 10 -11 24 -20 31 -20 7 0 16
-16 20 -35 3 -20 12 -35 20 -35 7 0 16 -10 18 -22 15 -68 13 -65 22 -39 7 24
7 24 15 3 5 -12 16 -22 25 -22 11 0 14 5 9 18 -4 9 -10 27 -12 40 -3 12 -11
22 -17 22 -13 0 -9 78 5 96 5 6 18 44 28 83 12 47 28 81 46 98 l26 27 -6 -27
c-6 -23 -4 -27 14 -27 12 0 24 8 27 18 17 51 41 92 55 92 9 0 22 14 29 30 15
37 35 40 26 4 -5 -19 -3 -25 6 -22 7 3 14 18 16 34 2 16 8 34 14 39 7 7 9 6 5
-1 -9 -15 32 -47 51 -39 10 3 19 6 22 6 3 1 11 5 17 11 9 7 15 6 19 -6 14 -36
41 -16 73 53 37 81 53 153 30 134 -32 -26 -68 -33 -84 -17 -20 20 -15 27 41
54 35 16 49 18 54 9 11 -18 23 45 15 81 -5 22 -3 30 7 30 18 0 88 58 88 74 0
15 -27 30 -104 56 -72 25 -91 24 -138 0z m-1061 -442 c-3 -7 -5 -2 -5 12 0 14
2 19 5 13 2 -7 2 -19 0 -25z m540 -80 c-3 -7 -5 -2 -5 12 0 14 2 19 5 13 2 -7
2 -19 0 -25z m-198 -169 c-25 -16 -30 -10 -23 29 10 56 17 61 27 18 7 -29 6
-40 -4 -47z m-118 -592 c-13 -13 -15 11 -4 40 7 16 8 15 11 -6 2 -13 -1 -28
-7 -34z"/>
<path d="M4027 4455 c-8 -7 -28 -17 -43 -21 -26 -6 -78 -39 -110 -69 -18 -17
-26 -53 -13 -60 6 -4 14 -3 18 2 3 6 14 10 24 10 13 0 17 -9 17 -34 0 -37 -1
-37 34 -23 27 10 34 2 15 -17 -20 -20 54 -4 76 17 26 24 35 25 35 5 0 -9 -8
-18 -17 -22 -27 -9 -113 -106 -108 -120 2 -7 0 -13 -5 -13 -6 0 -10 -6 -10
-13 0 -7 -9 -19 -20 -27 -23 -17 -26 -30 -6 -30 8 0 17 8 20 18 6 19 60 39 89
34 16 -3 16 -6 -5 -24 l-23 -21 63 6 c63 5 79 -3 41 -23 -13 -7 -19 -19 -17
-33 2 -17 -4 -24 -26 -32 -16 -5 -34 -18 -40 -28 -17 -27 10 -39 45 -21 29 14
58 19 46 7 -4 -3 0 -15 10 -25 12 -14 24 -17 50 -12 42 8 42 -4 -2 -46 l-35
-34 31 -13 c17 -7 42 -13 55 -13 22 0 24 5 26 48 1 26 3 65 5 87 6 56 6 63 -1
129 -3 40 -1 65 7 75 9 12 9 13 0 7 -8 -4 -11 -2 -7 7 2 7 10 14 17 14 13 0
73 35 202 118 99 64 224 135 237 135 11 0 38 25 38 35 0 8 -85 -2 -165 -21
-33 -7 -77 -14 -98 -14 -21 0 -49 -7 -62 -16 -15 -10 -53 -17 -102 -19 -64 -3
-80 -7 -88 -23 -7 -12 -17 -17 -27 -13 -13 4 -15 10 -8 21 16 25 12 39 -12 32
-16 -4 -20 -2 -15 10 8 22 -49 71 -74 65 -10 -3 -22 -1 -25 4 -8 13 -20 11
-37 -6z m-23 -320 c-4 -8 -13 -15 -21 -15 -13 0 -13 3 -3 15 7 8 16 15 21 15
5 0 6 -7 3 -15z m156 -175 c0 -5 -10 -10 -22 -10 -19 0 -20 2 -8 10 19 13 30
13 30 0z"/>
<path d="M1866 4283 c1 -32 5 -69 9 -83 11 -43 13 -55 14 -66 1 -5 8 -19 16
-30 13 -17 14 -15 8 30 -4 34 -3 47 5 43 5 -4 12 -1 15 5 8 23 20 -1 19 -37
-1 -26 2 -33 13 -28 8 3 15 0 15 -7 0 -7 12 -1 26 14 15 14 31 26 35 26 5 0 6
14 3 30 -8 37 1 38 20 3 20 -37 20 -16 -1 57 -15 55 -33 80 -33 46 0 -10 -19
-4 -67 20 -95 48 -100 46 -97 -23z m64 -63 c0 -13 -1 -13 -10 0 -5 8 -10 22
-10 30 0 13 1 13 10 0 5 -8 10 -22 10 -30z"/>
<path d="M3777 4203 c-4 -3 -7 -13 -7 -22 1 -13 3 -13 11 2 11 19 8 33 -4 20z"/>
<path d="M3960 4199 c0 -5 5 -7 10 -4 6 3 10 8 10 11 0 2 -4 4 -10 4 -5 0 -10
-5 -10 -11z"/>
<path d="M2352 4168 c-7 -7 -12 -20 -12 -29 0 -10 -4 -21 -10 -24 -12 -7 -14
-35 -2 -35 4 0 20 11 36 23 24 19 28 28 22 50 -7 30 -16 33 -34 15z"/>
<path d="M3736 4121 c-4 -7 -5 -15 -2 -18 9 -9 19 4 14 18 -4 11 -6 11 -12 0z"/>
<path d="M3104 4076 c-4 -9 -2 -27 4 -39 10 -22 10 -21 17 6 9 33 -10 62 -21
33z"/>
<path d="M1921 4014 c0 -11 3 -14 6 -6 3 7 2 16 -1 19 -3 4 -6 -2 -5 -13z"/>
<path d="M4052 3848 c-18 -18 -14 -27 8 -21 21 6 26 18 12 27 -5 3 -14 0 -20
-6z"/>
<path d="M2370 3765 c-7 -8 -17 -12 -22 -9 -27 17 -37 -54 -14 -98 8 -15 17
-40 21 -57 4 -17 11 -31 16 -31 5 0 9 -6 9 -13 0 -17 53 -77 68 -77 5 0 12 6
15 13 2 6 11 -3 21 -20 9 -18 20 -33 25 -33 18 0 -1 145 -25 192 -13 26 -24
54 -24 62 0 26 -41 86 -60 86 -10 0 -23 -7 -30 -15z"/>
<path d="M3386 3755 c-4 -11 -12 -28 -17 -37 -5 -10 -9 -28 -9 -40 l1 -23 13
24 c13 23 13 23 20 -22 4 -26 11 -49 17 -52 5 -4 6 -24 3 -46 -5 -31 -3 -39 8
-39 13 0 13 -8 -2 -64 -24 -83 -58 -136 -87 -133 -15 1 -23 8 -23 19 0 30 -27
20 -33 -12 -4 -16 -13 -30 -20 -30 -20 0 -34 -36 -47 -126 -7 -43 -16 -89 -21
-101 -4 -12 -6 -52 -2 -88 5 -54 9 -65 24 -65 10 0 21 -4 24 -10 3 -5 16 -10
27 -10 19 0 20 -4 14 -46 -3 -26 -6 -57 -6 -70 0 -16 -6 -24 -17 -25 -14 0
-13 -3 5 -11 15 -7 22 -20 22 -38 0 -17 14 -42 41 -71 22 -24 47 -56 55 -70
14 -27 53 -42 75 -29 9 6 9 16 0 40 -16 47 -14 59 12 69 24 9 119 -10 141 -28
7 -6 57 -11 112 -12 112 -1 151 13 205 73 26 29 90 145 90 165 1 25 43 50 87
52 26 0 62 6 80 12 18 6 41 7 50 3 22 -9 30 -11 72 -12 36 -2 39 -10 31 -72 0
-5 -19 -10 -42 -10 -44 0 -74 -21 -65 -46 9 -24 -50 -94 -79 -94 -14 0 -38
-14 -58 -35 -21 -22 -44 -35 -59 -35 -14 0 -31 -7 -38 -15 -9 -11 -32 -15 -79
-15 -71 0 -84 -5 -95 -34 -6 -18 -7 -18 -20 -1 -15 21 -126 36 -126 17 0 -6 5
-14 10 -17 17 -11 11 -25 -15 -35 -37 -14 -31 -18 19 -13 44 5 72 -11 46 -27
-15 -9 -4 -30 16 -30 22 0 16 -17 -8 -24 l-23 -6 23 -13 c12 -7 20 -16 16 -20
-12 -11 26 -57 47 -57 11 0 30 -6 42 -12 20 -12 16 -14 -38 -18 l-60 -5 37
-19 c20 -11 35 -23 32 -28 -3 -4 -14 -3 -25 3 -11 6 -27 8 -36 5 -12 -5 -11
-10 10 -26 14 -11 30 -20 36 -20 6 0 11 -4 11 -10 0 -5 12 -21 27 -35 15 -14
22 -25 16 -25 -7 0 -14 4 -17 9 -3 5 -15 11 -26 14 -15 4 -20 0 -20 -14 0 -14
7 -19 26 -19 l25 0 -26 -25 -27 -24 26 -7 c14 -3 26 -12 26 -18 0 -7 26 -19
58 -27 l57 -13 -42 -6 -41 -5 18 -37 c12 -26 14 -38 6 -41 -6 -2 3 -11 19 -20
l30 -17 -39 6 c-43 7 -43 1 -2 -44 17 -20 18 -24 6 -32 -8 -5 -21 -10 -29 -10
-11 0 -11 -4 2 -18 22 -24 21 -29 -4 -35 -35 -9 -13 -26 103 -76 56 -25 58
-25 58 -6 0 8 -4 15 -10 15 -5 0 -10 5 -10 10 0 7 6 7 19 0 11 -5 30 -10 43
-9 17 0 8 7 -31 25 -29 14 -51 27 -48 30 6 6 85 -19 127 -41 16 -8 36 -15 45
-15 9 0 33 -11 53 -25 20 -14 34 -25 32 -25 -3 0 -29 7 -57 14 -31 8 -55 10
-59 5 -3 -5 0 -9 5 -9 6 0 11 -9 11 -19 0 -11 6 -21 13 -24 9 -3 9 -7 -1 -19
-11 -14 -8 -17 24 -22 20 -4 38 -5 41 -2 14 13 43 -17 43 -43 0 -22 6 -30 24
-35 27 -7 43 -46 19 -46 -10 0 -13 -6 -9 -16 5 -13 2 -15 -14 -11 -15 4 -20 1
-18 -11 2 -10 -5 -18 -17 -19 -38 -6 -103 -47 -120 -75 -9 -16 -22 -27 -28
-26 -20 4 -106 -42 -125 -67 -11 -13 -31 -27 -46 -31 -14 -3 -31 -14 -36 -24
-6 -10 -19 -21 -29 -25 -11 -3 -23 -15 -26 -26 -4 -10 -13 -19 -21 -19 -19 0
-18 -36 1 -44 8 -3 15 -12 15 -19 0 -26 32 -42 88 -43 42 0 58 -5 68 -20 7
-10 18 -24 24 -31 14 -17 13 -24 -7 -39 -16 -11 -15 -13 12 -23 17 -6 37 -15
45 -21 47 -31 123 -61 162 -64 3 -1 10 -4 14 -9 4 -4 23 -7 41 -7 30 0 33 3
28 20 -5 15 -2 20 13 20 13 0 18 7 18 21 -1 25 40 52 96 63 20 3 41 13 48 21
7 8 23 15 36 15 15 0 24 6 24 15 0 8 9 15 20 15 12 0 32 11 45 25 23 22 25 23
25 5 0 -24 19 -26 46 -4 13 11 15 17 7 20 -7 3 -13 12 -13 20 0 8 -7 17 -15
20 -20 8 -19 30 1 38 22 8 22 9 16 -19 -4 -24 -2 -25 47 -25 28 0 51 4 51 10
0 5 7 7 15 4 8 -4 15 -10 15 -16 0 -5 -4 -7 -8 -4 -11 7 -30 -7 -32 -24 -5
-35 1 -50 25 -56 24 -6 25 -7 8 -34 -16 -28 -16 -28 20 -59 40 -36 66 -91 41
-91 -26 0 -14 -19 19 -29 17 -5 26 -10 20 -10 -7 -1 -13 -8 -13 -17 0 -9 -8
-23 -17 -30 -16 -12 -15 -13 15 -14 38 0 40 -8 8 -34 l-23 -19 25 -22 25 -21
-27 -21 c-26 -21 -36 -63 -15 -63 8 0 8 -5 -1 -15 -10 -12 -9 -15 6 -15 14 0
10 -6 -15 -21 l-33 -20 22 -24 23 -25 -24 -9 c-13 -5 -17 -10 -9 -11 8 0 26
-9 40 -20 l25 -20 -23 0 c-15 0 -22 -5 -19 -12 2 -7 16 -12 31 -11 31 2 37
-26 6 -34 -11 -3 -20 -14 -20 -24 0 -11 -6 -19 -12 -19 -7 0 -4 -7 7 -15 19
-15 19 -15 -4 -31 -27 -20 -19 -30 34 -43 32 -7 35 -9 13 -10 -28 -1 -51 -21
-24 -21 10 0 13 -6 10 -15 -4 -8 -15 -15 -25 -15 -10 0 -19 -6 -19 -13 0 -30
25 -37 132 -37 l108 0 0 944 0 945 -22 4 -23 4 23 2 c21 1 22 5 22 92 0 83 -2
90 -17 83 -38 -18 -359 -11 -331 8 11 6 10 10 -1 17 -10 6 -2 11 28 16 40 7
53 19 29 28 -19 6 9 37 32 37 12 0 28 18 45 54 15 30 35 62 46 72 11 10 30 35
41 56 24 42 54 53 42 16 -4 -13 -13 -32 -20 -43 -8 -11 -14 -26 -14 -35 0 -8
-9 -26 -19 -39 -18 -23 -18 -51 -2 -51 10 0 91 126 91 140 0 5 4 10 9 10 5 0
8 8 6 18 -1 9 0 11 2 5 3 -7 11 -13 19 -13 11 0 14 20 14 96 l0 96 -36 -7
c-26 -4 -39 -2 -45 7 -7 10 -12 11 -28 1 -16 -10 -22 -10 -28 1 -10 16 -57 26
-75 15 -7 -4 -18 -3 -24 2 -9 7 -18 5 -31 -8 -18 -18 -48 -19 -70 -1 -7 6 -14
5 -18 -2 -3 -5 -17 -10 -31 -10 -17 0 -24 6 -24 19 0 11 -5 21 -12 23 -15 5
-13 69 4 79 7 5 29 8 48 8 33 -1 72 5 113 17 9 3 17 12 17 19 0 8 6 18 13 22
39 24 113 133 179 263 l43 85 3 270 3 270 -28 -25 c-15 -14 -30 -29 -32 -34
-7 -17 -96 -96 -114 -102 -10 -3 -17 -13 -15 -22 4 -24 -10 -42 -33 -42 -12 0
-19 -7 -19 -20 0 -13 -7 -20 -20 -20 -11 0 -20 5 -20 11 0 6 -10 9 -22 8 -31
-3 -58 10 -58 28 0 12 -8 13 -38 8 -30 -5 -44 -2 -65 16 -22 16 -35 20 -60 14
-18 -3 -55 -9 -84 -12 -41 -4 -54 -9 -59 -25 -4 -15 -11 -18 -27 -13 -50 15
-67 17 -67 6 0 -6 -6 -11 -14 -11 -7 0 -28 -17 -46 -37 l-32 -38 27 -3 c21 -3
26 -8 22 -23 -3 -12 0 -19 9 -19 8 0 14 -9 14 -20 0 -28 15 -25 29 6 8 18 8
30 1 39 -8 9 -5 14 12 19 60 16 73 -8 31 -58 -20 -24 -23 -36 -18 -64 8 -41
34 -81 54 -82 11 0 9 -5 -5 -21 -17 -19 -18 -21 -1 -30 9 -6 17 -17 17 -24 0
-21 -64 -20 -84 1 -15 14 -22 14 -79 0 -126 -31 -173 -34 -216 -15 -22 9 -42
15 -45 11 -3 -3 -6 7 -6 22 0 38 -37 84 -74 92 -30 6 -30 7 -8 15 26 10 21 29
-7 29 -25 0 -33 11 -20 27 9 10 5 13 -20 13 -17 0 -31 5 -31 10 0 6 12 10 26
10 21 0 25 4 21 19 -3 14 0 17 13 14 10 -3 21 0 24 6 4 7 -1 11 -13 11 -12 0
-21 5 -21 10 0 6 5 10 10 10 6 0 10 4 10 10 0 6 -9 6 -26 0 -14 -6 -35 -10
-48 -10 -17 0 -22 -6 -22 -22 1 -18 -5 -24 -29 -26 -17 -2 -42 1 -55 7 -18 7
-20 10 -7 10 9 1 17 6 17 12 0 12 -35 3 -69 -18 -30 -19 -130 -20 -143 -1 -7
10 -11 10 -15 1 -2 -7 -15 -13 -28 -13 -26 0 -115 -55 -115 -71 0 -5 -5 -9
-10 -9 -7 0 -7 6 0 19 5 11 10 29 10 40 0 12 5 21 11 21 8 0 10 14 6 43 -4 28
-1 48 9 61 13 18 14 17 14 -21 0 -23 4 -44 9 -47 12 -8 51 28 51 47 0 8 16 34
36 58 25 30 34 49 30 63 -3 12 -6 29 -6 39 0 10 -8 17 -18 17 -26 0 -42 20
-42 51 0 19 -6 30 -21 34 -16 5 -19 12 -14 35 4 20 2 29 -9 33 -9 4 -16 13
-16 22 0 8 -9 15 -19 15 -12 0 -21 8 -24 23 -3 21 -4 21 -11 2z m4 -605 c0 -5
-4 -10 -10 -10 -5 0 -10 5 -10 10 0 6 5 10 10 10 6 0 10 -4 10 -10z m-110
-162 c0 -38 -3 -49 -10 -38 -13 20 -13 90 0 90 6 0 10 -24 10 -52z m280 32 c0
-11 -4 -20 -10 -20 -5 0 -10 9 -10 20 0 11 5 20 10 20 6 0 10 -9 10 -20z m15
-100 c3 -5 1 -10 -4 -10 -6 0 -11 5 -11 10 0 6 2 10 4 10 3 0 8 -4 11 -10z
m-56 -44 c1 -6 -5 -1 -13 9 -8 11 -12 24 -8 29 5 9 20 -17 21 -38z m1363 -638
c-15 -15 -70 1 -77 23 -11 34 4 58 38 61 30 3 33 0 40 -36 5 -23 5 -42 -1 -48z
m-976 -136 c-10 -2 -22 0 -28 6 -6 6 0 7 19 4 21 -5 23 -7 9 -10z m-21 -52 c3
-5 -3 -10 -14 -10 -12 0 -21 5 -21 10 0 6 6 10 14 10 8 0 18 -4 21 -10z m1103
-137 c-10 -2 -26 -2 -35 0 -10 3 -2 5 17 5 19 0 27 -2 18 -5z m-948 -59 l35
-14 -35 6 c-40 7 -76 24 -50 23 8 0 31 -7 50 -15z m96 -30 c18 -15 18 -15 -11
-9 -37 8 -57 25 -29 25 11 0 29 -7 40 -16z m132 -46 c49 -17 60 -23 42 -26
-14 -1 -47 9 -75 23 -62 31 -53 31 33 3z m-312 -23 c10 -8 14 -15 8 -15 -5 0
-19 7 -30 15 -10 8 -14 15 -8 15 5 0 19 -7 30 -15z m9 -35 c28 -10 42 -19 31
-20 -30 0 -96 22 -90 31 7 11 1 12 59 -11z m1115 -130 c0 -25 -16 -50 -32 -50
-12 0 -10 58 3 82 9 17 13 18 20 7 5 -8 9 -25 9 -39z m-672 -17 c29 -14 55
-30 58 -35 3 -5 -11 -1 -32 10 -22 11 -56 25 -76 31 -41 14 -61 32 -26 24 13
-3 47 -17 76 -30z m689 -80 c-15 -16 -17 -16 -17 -1 0 9 6 18 13 21 20 7 22
-2 4 -20z m-27 -43 c0 -5 -5 -10 -11 -10 -5 0 -7 5 -4 10 3 6 8 10 11 10 2 0
4 -4 4 -10z m-320 -350 c0 -4 -9 -10 -20 -13 -15 -4 -20 0 -20 13 0 13 5 17
20 13 11 -3 20 -9 20 -13z m195 -910 c3 -5 -1 -10 -9 -10 -9 0 -16 5 -16 10 0
6 4 10 9 10 6 0 13 -4 16 -10z"/>
<path d="M4190 3745 c0 -8 9 -15 20 -15 11 0 20 7 20 15 0 8 -9 15 -20 15 -11
0 -20 -7 -20 -15z"/>
<path d="M1164 3663 c-3 -10 -10 -26 -15 -35 -18 -35 -10 -82 21 -112 23 -22
30 -25 30 -13 0 10 5 17 11 17 8 0 7 5 -2 16 -10 12 -10 17 -1 23 19 11 3 100
-20 112 -14 8 -19 6 -24 -8z"/>
<path d="M3367 3626 c-10 -25 -9 -56 2 -56 16 0 20 15 12 45 -6 24 -8 26 -14
11z"/>
<path d="M2940 3581 c0 -17 5 -31 10 -31 6 0 10 11 10 24 0 14 -4 28 -10 31
-6 4 -10 -7 -10 -24z"/>
<path d="M2840 3474 c0 -8 5 -12 10 -9 6 3 10 10 10 16 0 5 -4 9 -10 9 -5 0
-10 -7 -10 -16z"/>
<path d="M3800 3456 c0 -8 -8 -17 -19 -21 -10 -3 -26 -14 -35 -24 -16 -18 -15
-19 29 -25 33 -5 61 -2 98 11 39 13 46 18 30 21 -28 4 -30 18 -3 25 39 10 19
22 -40 25 -47 2 -60 -1 -60 -12z"/>
<path d="M2535 3379 c-5 -29 -11 -39 -21 -35 -8 3 -14 -1 -14 -9 0 -8 -5 -15
-11 -15 -18 0 -5 -45 14 -48 12 -3 17 3 17 20 0 13 6 32 14 43 18 27 30 85 18
85 -6 0 -13 -18 -17 -41z"/>
<path d="M3953 3403 c-14 -5 -18 -33 -5 -33 5 0 16 6 26 13 15 11 16 15 5 19
-8 3 -20 3 -26 1z"/>
<path d="M2743 3058 c-6 -7 -13 -28 -16 -45 -6 -30 -5 -32 13 -21 22 14 32 46
21 65 -6 12 -9 12 -18 1z"/>
<path d="M4058 3063 c7 -3 16 -2 19 1 4 3 -2 6 -13 5 -11 0 -14 -3 -6 -6z"/>
<path d="M1426 3001 c-8 -12 31 -44 44 -36 8 5 5 13 -9 26 -23 21 -28 23 -35
10z"/>
<path d="M3232 2800 c0 -14 2 -19 5 -12 2 6 2 18 0 25 -3 6 -5 1 -5 -13z"/>
<path d="M2428 2593 c7 -3 16 -2 19 1 4 3 -2 6 -13 5 -11 0 -14 -3 -6 -6z"/>
<path d="M2680 2443 c1 -27 25 -53 48 -53 12 0 37 -13 55 -30 19 -16 38 -30
43 -30 4 0 17 -8 28 -19 12 -10 32 -21 47 -24 20 -5 28 -1 42 22 32 55 17 97
-43 119 -18 7 -33 5 -54 -5 -26 -14 -33 -13 -88 11 -70 31 -78 32 -78 9z"/>
<path d="M3259 2429 c-8 -5 -32 -9 -54 -9 -36 -1 -85 -26 -85 -45 0 -27 -56
-45 -77 -24 -17 17 -31 3 -64 -67 -29 -60 -30 -68 -23 -145 l7 -81 -29 4 c-23
2 -32 -3 -52 -32 -13 -20 -19 -36 -13 -38 6 -2 11 -9 11 -16 0 -20 -90 -99
-114 -101 -12 -1 -22 -10 -24 -21 -6 -29 -19 -39 -35 -26 -11 9 -18 8 -32 -8
-10 -11 -23 -20 -28 -20 -6 0 -24 -11 -41 -23 -17 -13 -49 -32 -70 -42 -22
-10 -46 -32 -55 -48 -9 -16 -30 -43 -48 -59 -27 -26 -30 -33 -20 -49 16 -25
112 -27 138 -3 23 21 39 10 39 -27 0 -40 37 -41 46 -1 7 31 46 72 68 72 8 0
16 4 18 9 2 5 20 12 41 16 35 7 37 6 37 -19 0 -30 0 -30 35 -14 21 10 28 9 35
-2 7 -12 11 -12 25 0 9 8 27 15 38 15 12 1 37 2 55 3 18 1 31 6 28 11 -15 24
7 41 53 41 43 0 47 -2 64 -38 27 -56 57 -84 116 -112 29 -13 62 -32 73 -42 14
-12 29 -15 49 -11 18 3 29 1 29 -6 0 -10 107 -7 118 4 3 3 0 5 -6 5 -7 0 -12
9 -12 19 0 22 -19 31 -65 31 -71 0 -95 11 -120 55 -14 23 -25 53 -25 66 0 34
-33 84 -70 105 -39 24 -98 113 -81 123 8 5 0 19 -24 44 -20 20 -40 37 -44 37
-4 0 -13 12 -19 26 -10 20 -9 28 3 40 16 17 11 39 -7 28 -13 -8 -28 15 -21 33
4 11 8 11 13 3 4 -7 9 0 13 17 3 18 33 55 81 101 41 39 78 72 81 72 3 0 23 12
44 26 57 37 75 123 28 130 -8 1 -21 -2 -28 -7z m-259 -769 c0 -13 -7 -20 -20
-20 -13 0 -20 7 -20 20 0 13 7 20 20 20 13 0 20 -7 20 -20z m-360 -45 c0 -8
-4 -15 -10 -15 -5 0 -10 7 -10 15 0 8 5 15 10 15 6 0 10 -7 10 -15z"/>
<path d="M2068 2363 c7 -3 16 -2 19 1 4 3 -2 6 -13 5 -11 0 -14 -3 -6 -6z"/>
<path d="M5092 2315 c-21 -27 -22 -30 -7 -33 24 -5 37 11 33 39 -3 24 -3 24
-26 -6z"/>
<path d="M3710 2310 c19 -13 30 -13 30 0 0 6 -10 10 -22 10 -19 0 -20 -2 -8
-10z"/>
<path d="M2025 2240 c-19 -8 -19 -9 2 -9 12 -1 25 4 28 9 7 12 -2 12 -30 0z"/>
<path d="M5048 2215 c-20 -19 -46 -35 -57 -35 -19 0 -41 -26 -41 -49 0 -7 32
-11 86 -11 l85 0 -2 65 c-3 78 -15 83 -71 30z"/>
<path d="M4860 2090 c-11 -7 -7 -10 18 -10 17 0 32 5 32 10 0 13 -30 13 -50 0z"/>
<path d="M4940 2090 c0 -5 11 -10 25 -10 14 0 25 5 25 10 0 6 -11 10 -25 10
-14 0 -25 -4 -25 -10z"/>
<path d="M1290 2021 c0 -11 7 -21 16 -23 28 -5 134 3 134 11 0 9 -90 31 -126
31 -17 0 -24 -6 -24 -19z"/>
<path d="M1450 1968 c-19 -5 -52 -12 -73 -15 -20 -3 -40 -9 -43 -14 -3 -5 -14
-9 -25 -9 -10 0 -19 -4 -19 -9 0 -14 28 -33 34 -23 3 5 26 12 52 16 25 3 58
15 74 26 15 11 37 20 48 20 12 0 24 5 27 10 8 12 -28 11 -75 -2z"/>
<path d="M2800 1961 c0 -5 -3 -18 -6 -28 -6 -16 -5 -16 9 2 19 23 21 35 7 35
-5 0 -10 -4 -10 -9z"/>
<path d="M1447 1905 c-48 -17 -57 -25 -26 -25 13 1 40 9 59 20 41 22 22 25
-33 5z"/>
<path d="M1223 1873 c-13 -2 -23 -11 -23 -19 0 -17 31 -19 48 -2 13 13 16 29
5 27 -5 -1 -18 -4 -30 -6z"/>
<path d="M1369 1845 c-60 -13 -79 -21 -79 -35 0 -4 35 3 77 17 112 35 112 42
2 18z"/>
<path d="M843 1843 c9 -2 23 -2 30 0 6 3 -1 5 -18 5 -16 0 -22 -2 -12 -5z"/>
<path d="M1473 1835 c-18 -8 -33 -16 -33 -19 0 -7 44 6 65 21 25 17 9 16 -32
-2z"/>
<path d="M980 1808 c0 -9 5 -10 49 -12 22 -1 27 2 19 11 -11 13 -68 15 -68 1z"/>
<path d="M1950 1730 c0 -5 5 -10 11 -10 5 0 7 5 4 10 -3 6 -8 10 -11 10 -2 0
-4 -4 -4 -10z"/>
<path d="M2030 1680 c-9 -6 -10 -10 -3 -10 6 0 15 5 18 10 8 12 4 12 -15 0z"/>
<path d="M2164 1661 c-11 -10 -26 -21 -34 -24 -8 -3 4 -6 28 -6 35 -1 42 2 42
18 0 28 -14 33 -36 12z"/>
<path d="M2332 1618 c-28 -14 -24 -30 11 -39 35 -9 55 12 32 35 -9 9 -17 16
-18 15 -1 0 -12 -5 -25 -11z"/>
<path d="M3794 1610 c50 -25 54 -25 31 0 -10 11 -30 20 -44 20 -24 -1 -22 -3
13 -20z"/>
<path d="M2680 1571 c0 -5 7 -12 16 -15 22 -9 24 -8 24 9 0 8 -9 15 -20 15
-11 0 -20 -4 -20 -9z"/>
<path d="M3720 1570 c0 -5 5 -10 11 -10 5 0 7 5 4 10 -3 6 -8 10 -11 10 -2 0
-4 -4 -4 -10z"/>
<path d="M2683 890 c0 -46 2 -50 24 -50 16 0 23 6 23 19 0 11 -5 23 -10 26 -6
3 -7 17 -4 31 5 19 2 24 -13 24 -17 0 -20 -7 -20 -50z"/>
<path d="M2407 903 c-13 -12 -7 -23 13 -23 11 0 20 7 20 15 0 15 -21 21 -33 8z"/>
</g>
</svg>
